<?xml version="1.0" encoding="UTF-8" standalone="no" ?>
<!DOCTYPE svg PUBLIC "-//W3C//DTD SVG 1.1//EN" "http://www.w3.org/Graphics/SVG/1.1/DTD/svg11.dtd">
<svg xmlns="http://www.w3.org/2000/svg" xmlns:xlink="http://www.w3.org/1999/xlink" version="1.1" width="500" height="500" viewBox="0 0 500 500" xml:space="preserve">
<desc>Created with Fabric.js 3.6.3</desc>
<defs>
</defs>
<g transform="matrix(0.5 0 0 0.5 250.25 250.25)"  >
<linearGradient id="SVGID_2642" gradientUnits="userSpaceOnUse" gradientTransform="matrix(1 0 0 1 -500 -500)"  x1="0" y1="0" x2="1000" y2="1000">
<stop offset="0%" style="stop-color:rgb(254,141,198);stop-opacity: 1"/>
<stop offset="100%" style="stop-color:rgb(254,209,199);stop-opacity: 1"/>
</linearGradient>
<rect style="stroke: none; stroke-width: 1; stroke-dasharray: none; stroke-linecap: butt; stroke-dashoffset: 0; stroke-linejoin: miter; stroke-miterlimit: 4; fill: url(#SVGID_2642); fill-rule: nonzero; opacity: 1;"  x="-500" y="-500" rx="0" ry="0" width="1000" height="1000" />
</g>
<g transform="matrix(1 0 0 1 250.999999972507 236.68415405357132)" style=""  ><path fill="#000000" opacity="1" d="M19.93-83.61Q11.85-83.28 8.19-81.86Q4.53-80.44 3.17-76.62Q1.80-72.80 1.80-64.39L1.80-64.39L1.80 46.56Q1.80 54.97 3.17 58.79Q4.53 62.61 8.19 64.03Q11.85 65.45 19.93 65.78L19.93 65.78L19.93 70.26Q9.45 69.60-8.46 69.60L-8.46 69.60Q-27.68 69.60-37.08 70.26L-37.08 70.26L-37.08 65.78Q-28.99 65.45-25.39 64.03Q-21.79 62.61-20.42 58.79Q-19.06 54.97-19.06 46.56L-19.06 46.56L-19.06-73.13L-72.89 71.35L-76.50 71.35L-132.85-73.78L-132.85 44.27Q-132.85 52.89-131.32 57.26Q-129.79 61.63-125.59 63.54Q-121.38 65.45-112.54 65.78L-112.54 65.78L-112.54 70.26Q-120.51 69.60-135.36 69.60L-135.36 69.60Q-148.68 69.60-156.11 70.26L-156.11 70.26L-156.11 65.78Q-148.35 65.45-144.59 63.54Q-140.82 61.63-139.40 57.26Q-137.98 52.89-137.98 44.27L-137.98 44.27L-137.98-64.39Q-137.98-72.80-139.35-76.62Q-140.71-80.44-144.37-81.86Q-148.03-83.28-156.11-83.61L-156.11-83.61L-156.11-88.09Q-148.79-87.43-135.36-87.43L-135.36-87.43Q-123.57-87.43-116.25-88.09L-116.25-88.09L-67.11 41.65L-19.06-87.43L-8.46-87.43Q9.45-87.43 19.93-88.09L19.93-88.09L19.93-83.61Z"/><path fill="#000000" opacity="1" d="M153.92 25.48Q153.27 31.49 153.27 41.65L153.27 41.65Q153.27 54.31 154.80 70.26L154.80 70.26Q139.62 69.60 103.58 69.60L103.58 69.60Q60.66 69.60 38.71 70.26L38.71 70.26L38.71 65.78Q46.79 65.45 50.45 64.03Q54.11 62.61 55.48 58.79Q56.84 54.97 56.84 46.56L56.84 46.56L56.84-64.39Q56.84-72.80 55.48-76.62Q54.11-80.44 50.45-81.86Q46.79-83.28 38.71-83.61L38.71-83.61L38.71-88.09Q60.66-87.43 103.58-87.43L103.58-87.43Q136.45-87.43 150.32-88.09L150.32-88.09Q148.79-73.46 148.79-61.66L148.79-61.66Q148.79-52.93 149.45-47.79L149.45-47.79L144.31-47.79Q142.68-62.32 140.22-69.42Q137.76-76.51 131.92-79.73Q126.08-82.96 114.28-82.96L114.28-82.96L95.72-82.96Q87.64-82.96 83.98-81.65Q80.32-80.34 78.96-76.57Q77.59-72.80 77.59-64.39L77.59-64.39L77.59-11.65L92.44-11.65Q103.69-11.65 107.40-18.36Q111.12-25.08 111.99-32.07Q112.86-39.06 113.19-41.13L113.19-41.13L118.32-41.13Q117.56-30.10 117.56-20.05L117.56-20.05L117.67-9.35Q117.67 2.00 118.98 22.43L118.98 22.43L113.85 22.43Q113.63 20.90 112.59 11.61Q111.55 2.33 106.53-2.42Q101.51-7.17 92.44-7.17L92.44-7.17L77.59-7.17L77.59 46.56Q77.59 54.97 78.96 58.74Q80.32 62.50 83.98 63.81Q87.64 65.13 95.72 65.13L95.72 65.13L112.10 65.13Q126.08 65.13 133.34 61.41Q140.60 57.70 143.82 49.51Q147.04 41.32 148.79 25.48L148.79 25.48L153.92 25.48Z"/></g><g transform="matrix(0.4695431472081219 0 0 0.0592033383728436 250.00000000000003 238.32611531890038)"  >
<rect style="stroke: none; stroke-width: 1; stroke-dasharray: none; stroke-linecap: butt; stroke-dashoffset: 0; stroke-linejoin: miter; stroke-miterlimit: 4; fill: rgb(255,255,255); fill-rule: evenodd; opacity: 1;"  x="-393.5" y="-393.5" rx="0" ry="0" width="787" height="787" />
</g>
<g transform="matrix(1 0 0 1 256.00347226350607 238.88374944292676)" style=""  ><path fill="#000000" opacity="1" d="M-97.25 6.38C-97.07 7.70-96.55 7.92-96.03 7.92C-95.53 7.92-94.76 7.82-94.26 7.57C-94.66 7.27-94.78 6.85-94.96 5.68L-96.62-6.25C-96.80-7.32-97.00-8.46-97.30-9.68C-98.29-9.68-99.19-9.66-99.76-9.58C-100.09-8.16-100.36-7.22-100.83-5.90L-104.77 5.21L-109.07-6.84C-109.40-7.77-109.87-8.76-110.42-9.68C-111.51-9.68-112.41-9.56-112.86-9.43C-112.88-8.11-112.98-7.04-113.11-5.87C-113.11-5.87-114.90 6.45-114.90 7.00C-114.90 7.75-114.58 7.92-114.18 7.92C-113.81 7.92-113.16 7.82-112.61 7.57C-112.81 7.42-112.88 7.10-112.88 6.80C-112.88 6.58-112.83 6.18-112.78 5.68L-111.22-5.77L-106.66 6.38C-106.19 7.65-105.74 7.92-105.17 7.92C-104.62 7.92-104.14 7.87-103.70 7.62C-103.70 7.32-103.50 6.60-103.17 5.68L-98.99-5.77Z"/><path fill="#000000" opacity="1" d="M-85.59 6.38C-85.59 7.70-85.15 7.92-84.62 7.92C-84.15 7.92-83.40 7.82-82.85 7.57C-83.20 7.27-83.25 6.68-83.25 5.68L-83.25-6.25C-83.25-7.42-83.30-8.66-83.43-9.71C-84.40-9.71-85.42-9.58-85.84-9.46C-85.64-8.04-85.59-7.12-85.59-5.87Z"/><path fill="#000000" opacity="1" d="M-63.46 7.82C-62.14 7.82-61.94 7.55-61.94 7.22C-61.94 6.93-62.01 6.48-62.26 6.15C-62.56 6.40-63.16 6.43-64.15 6.43L-70.06 6.43C-70.43 6.43-70.78 6.43-71.15 6.45L-71.15-6.25C-71.15-7.42-71.20-8.66-71.33-9.71C-72.30-9.71-73.32-9.58-73.74-9.46C-73.54-8.04-73.49-7.12-73.49-5.87L-73.49 6.60C-73.49 7.12-73.39 7.67-73.27 8.00C-71.85 7.85-70.93 7.82-69.68 7.82Z"/><path fill="#000000" opacity="1" d="M-41.30 6.38C-40.77 7.70-40.20 7.92-39.65 7.92C-39.16 7.92-38.38 7.82-37.94 7.57C-38.38 7.27-38.68 6.70-39.08 5.68L-43.79-6.25C-44.26-7.42-44.76-8.64-45.28-9.68C-46.30-9.68-47.27-9.56-47.67-9.46C-48.02-8.09-48.44-6.84-48.84-5.87L-53.67 6.38C-53.87 6.93-53.95 7.27-53.95 7.50C-53.95 7.82-53.72 7.92-53.45 7.92C-53.05 7.92-52.40 7.82-51.85 7.57C-51.85 7.17-51.70 6.58-51.36 5.68L-50.24 2.72L-42.74 2.72ZM-46.10-5.87L-43.29 1.32L-49.69 1.32L-46.53-6.92C-46.38-6.60-46.25-6.25-46.10-5.87Z"/><path fill="#000000" opacity="1" d=""/><path fill="#000000" opacity="1" d="M-8.38-0.44C-7.06-0.44-6.84-0.69-6.84-1.02C-6.84-1.29-6.91-1.71-7.18-2.01C-7.48-1.86-8.08-1.84-9.08-1.84L-14.35-1.84C-14.73-1.84-15.10-1.84-15.45-1.81L-15.45-6.17C-15.45-6.87-15.48-7.54-15.53-8.19C-15.10-8.21-14.68-8.21-14.21-8.21L-7.73-8.21C-6.44-8.21-6.21-8.46-6.21-8.81C-6.21-9.09-6.29-9.51-6.54-9.83C-6.84-9.63-7.46-9.61-8.45-9.61L-14.58-9.61C-15.75-9.61-16.99-9.56-18.04-9.43C-17.84-8.04-17.79-7.07-17.79-5.82L-17.79 6.60C-17.79 7.12-17.69 7.67-17.57 8.00C-16.15 7.85-15.23 7.82-13.98 7.82L-7.51 7.82C-6.19 7.82-5.96 7.55-5.96 7.22C-5.96 6.93-6.04 6.48-6.31 6.15C-6.61 6.40-7.21 6.43-8.20 6.43L-14.35 6.43C-14.73 6.43-15.08 6.43-15.45 6.45L-15.45-0.42C-14.98-0.44-14.50-0.44-13.98-0.44Z"/><path fill="#000000" opacity="1" d="M4.12 3.81C2.93 3.81 2.15 4.16 2.15 4.98C2.15 6.20 4.12 7.95 7.76 7.95C11.67 7.95 13.91 6.05 13.91 3.22C13.91-2.54 4.62-1.17 4.62-5.30C4.62-6.97 6.11-8.31 8.08-8.31C9.75-8.31 10.94-7.27 11.42-5.95C12.66-5.95 13.38-6.15 13.38-6.89C13.38-8.01 11.49-9.73 8.18-9.73C4.47-9.73 2.38-7.74 2.38-5.15C2.38 0.30 11.59-0.99 11.59 3.51C11.59 5.43 9.95 6.53 7.88 6.53C5.96 6.53 4.67 5.51 4.12 3.81Z"/><path fill="#000000" opacity="1" d="M24.74-0.99C24.74-5.35 27.10-8.31 30.49-8.31C32.51-8.31 34.00-7.24 34.60-5.72C35.77-5.72 36.49-5.97 36.49-6.67C36.49-7.82 34.37-9.73 30.59-9.73C25.46-9.73 22.22-6.02 22.22-0.62C22.22 4.46 25.31 7.95 30.34 7.95C33.10 7.95 35.49 6.78 36.62 5.16L36.24 4.93C36.07 4.83 35.87 4.73 35.72 4.73C34.95 4.73 34.27 6.53 30.51 6.53C27.05 6.53 24.74 3.46 24.74-0.99Z"/><path fill="#000000" opacity="1" d="M44.51-0.69C44.51 4.44 47.67 7.95 52.33 7.95C57.21 7.95 60.52 4.26 60.52-1.09C60.52-6.22 57.36-9.73 52.68-9.73C47.82-9.73 44.51-6.05 44.51-0.69ZM47.02-0.94C47.02-5.33 49.21-8.31 52.45-8.31C55.74-8.31 58.00-5.28 58.00-0.84C58.00 3.54 55.81 6.53 52.55 6.53C49.26 6.53 47.02 3.49 47.02-0.94Z"/><path fill="#000000" opacity="1" d="M69.56 6.38C69.56 7.70 69.98 7.92 70.50 7.92C70.93 7.92 71.65 7.82 72.17 7.57C71.92 7.27 71.90 6.68 71.90 5.68L71.90 0.70C72.37 0.68 72.84 0.68 73.37 0.68L74.91 0.68L78.50 6.33C79.29 7.72 79.99 7.92 80.56 7.92C81.09 7.92 81.76 7.82 82.21 7.57C81.68 7.25 81.24 6.63 80.59 5.61L77.23 0.35C79.59-0.37 81.06-2.19 81.06-4.58C81.06-7.57 78.70-9.61 75.19-9.61L71.55-9.61C70.60-9.58 69.71-9.48 69.31-9.38C69.51-7.96 69.56-7.04 69.56-5.80ZM71.85-8.21L74.99-8.21C77.18-8.21 78.67-6.67 78.67-4.43C78.67-2.24 77.23-0.72 75.09-0.72L72.99-0.72C72.62-0.72 72.25-0.72 71.90-0.69L71.90-6.17C71.90-6.84 71.87-7.54 71.85-8.21Z"/><path fill="#000000" opacity="1" d="M102.03-8.21C103.32-8.21 103.55-8.49 103.55-8.84C103.55-9.11 103.47-9.56 103.22-9.91C102.92-9.66 102.30-9.61 101.31-9.61L92.49-9.61C91.32-9.61 90.08-9.56 89.03-9.43C89.03-8.91 89.15-8.36 89.28-8.04C90.67-8.19 91.62-8.21 92.86-8.21L95.06-8.21C95.13-7.39 95.13-6.72 95.13-5.87L95.13 6.38C95.13 7.70 95.60 7.92 96.13 7.92C96.60 7.92 97.35 7.82 97.89 7.57C97.55 7.27 97.47 6.68 97.47 5.68L97.47-6.25C97.47-6.92 97.45-7.57 97.42-8.21Z"/><path fill="#000000" opacity="1" d=""/></g><g transform="matrix(1 0 0 1 250.49998638307142 354.9065)" style=""  ><path fill="#000000" opacity="0.75" d="M-35.94 6.87C-33.36 6.87-31.99 4.90-31.99 2.90C-31.99-1.51-38.50-1.38-38.50-4.79C-38.50-6.19-37.58-7.12-35.98-7.12C-34.58-7.12-33.57-6.28-33.48-4.43L-32.18-4.43C-32.29-6.74-33.72-8.38-36.03-8.38C-38.29-8.38-39.83-6.80-39.83-4.79C-39.83-0.52-33.32-0.50-33.32 2.90C-33.32 4.50-34.20 5.61-35.98 5.61C-37.62 5.61-38.67 4.64-38.73 2.82L-40.04 2.82C-39.97 5.25-38.38 6.87-35.94 6.87Z"/><path fill="#000000" opacity="0.75" d="M-29.35-6.47C-28.74-6.47-28.34-6.86-28.34-7.47C-28.34-8.08-28.74-8.48-29.35-8.48C-29.96-8.48-30.36-8.08-30.36-7.47C-30.36-6.86-29.96-6.47-29.35-6.47ZM-29.96 6.60L-28.72 6.60L-28.72-4.43L-29.96-4.43Z"/><path fill="#000000" opacity="0.75" d="M-21.85-4.68C-23.19-4.68-24.14-4.05-24.71-3.06L-24.92-4.43L-25.95-4.43L-25.95 6.60L-24.71 6.60L-24.71-0.08C-24.71-2.22-23.70-3.50-22.17-3.50C-20.72-3.50-20.13-2.50-20.13-0.27L-20.13 6.60L-18.89 6.60L-18.89-0.46C-18.89-3.48-20.07-4.68-21.85-4.68Z"/><path fill="#000000" opacity="0.75" d="M-12.99 6.81C-10.80 6.81-9.40 5.40-9.33 2.88L-10.59 2.88C-10.66 4.73-11.52 5.59-12.99 5.59C-14.40 5.59-15.26 4.73-15.26 2.88L-15.26-0.75C-15.26-2.60-14.40-3.46-12.99-3.46C-11.52-3.46-10.68-2.60-10.62-0.75L-9.36-0.75C-9.42-3.27-10.80-4.68-12.99-4.68C-15.11-4.68-16.52-3.27-16.52-0.75L-16.52 2.88C-16.52 5.40-15.11 6.81-12.99 6.81Z"/><path fill="#000000" opacity="0.75" d="M-1.29 3.22C-1.46 4.83-2.26 5.59-3.85 5.59C-5.30 5.59-6.18 4.73-6.18 2.88L-6.18 1.68L-0.20 1.68L-0.20-0.75C-0.20-3.27-1.67-4.68-3.87-4.68C-6.02-4.68-7.44-3.27-7.44-0.75L-7.44 2.88C-7.44 5.40-6.04 6.81-3.90 6.81C-1.59 6.81-0.22 5.53-0.05 3.22ZM-3.85-3.46C-2.34-3.46-1.44-2.60-1.44-0.75L-1.44 0.53L-6.18 0.53L-6.18-0.75C-6.18-2.60-5.30-3.46-3.85-3.46Z"/><path fill="#000000" opacity="0.75" d=""/><path fill="#000000" opacity="0.75" d="M6.37 6.60L13.45 6.60L13.45 5.42L7.63 5.42C7.63 1.16 13.30-0.80 13.30-5.00C13.30-6.84 11.98-8.31 9.86-8.31C7.89-8.31 6.58-6.84 6.46-4.64L7.72-4.64C7.76-6.30 8.58-7.14 9.86-7.14C11.25-7.14 12.04-6.21 12.04-5.00C12.04-1.40 6.37 0.55 6.37 5.55Z"/><path fill="#000000" opacity="0.75" d="M18.95 6.81C21.09 6.81 22.52 5.27 22.52 2.98L22.52-4.47C22.52-6.78 21.09-8.31 18.95-8.31C16.81-8.31 15.38-6.78 15.38-4.47L15.38 2.98C15.38 5.27 16.81 6.81 18.95 6.81ZM18.95 5.59C17.48 5.59 16.62 4.62 16.62 2.98L16.62-4.47C16.62-6.13 17.48-7.10 18.95-7.10C20.42-7.10 21.28-6.13 21.28-4.47L21.28 2.98C21.28 4.62 20.42 5.59 18.95 5.59Z"/><path fill="#000000" opacity="0.75" d="M28.53 6.81C30.67 6.81 32.10 5.27 32.10 2.98L32.10-4.47C32.10-6.78 30.67-8.31 28.53-8.31C26.39-8.31 24.96-6.78 24.96-4.47L24.96 2.98C24.96 5.27 26.39 6.81 28.53 6.81ZM28.53 5.59C27.06 5.59 26.20 4.62 26.20 2.98L26.20-4.47C26.20-6.13 27.06-7.10 28.53-7.10C30.00-7.10 30.86-6.13 30.86-4.47L30.86 2.98C30.86 4.62 30.00 5.59 28.53 5.59Z"/><path fill="#000000" opacity="0.75" d="M33.32-8.12L33.32-6.91L38.61-6.91L34.70 6.64L36.03 6.64L40.08-7.43L40.08-8.12Z"/></g></svg>